<svg width="20" height="20" viewBox="0 0 20 20" fill="none" xmlns="http://www.w3.org/2000/svg">
<path d="M15.0564 10.5091C15.0479 9.04387 15.7117 7.93958 17.0523 7.12532C16.3025 6.0511 15.1682 5.46028 13.6729 5.34641C12.257 5.23469 10.708 6.17141 10.1408 6.17141C9.54141 6.17141 8.1707 5.38508 7.09219 5.38508C4.86641 5.41946 2.50098 7.15969 2.50098 10.7003C2.50098 11.7466 2.69219 12.8273 3.07461 13.9402C3.58594 15.4054 5.4293 18.9954 7.35215 18.9374C8.35762 18.9138 9.06875 18.2241 10.3771 18.2241C11.6469 18.2241 12.3043 18.9374 13.4258 18.9374C15.3658 18.9095 17.033 15.646 17.5186 14.1765C14.9168 12.9497 15.0564 10.5843 15.0564 10.5091Z" fill="black"/>
<path d="M12.7984 3.95644C13.8877 2.66309 13.7889 1.48574 13.7566 1.0625C12.7941 1.11836 11.6813 1.71777 11.0475 2.45469C10.3492 3.24531 9.93888 4.22285 10.027 5.325C11.0668 5.40449 12.0164 4.86953 12.7984 3.95644Z" fill="black"/>
</svg>
