<svg width="30" height="30" viewBox="0 0 30 30" fill="none" xmlns="http://www.w3.org/2000/svg">
<path d="M17.5195 25.6055C17.5195 26.3086 17.2755 26.9042 16.7871 27.3926C16.2987 27.881 15.7031 28.125 15 28.125C14.2969 28.125 13.701 27.881 13.2129 27.3926C12.7245 26.9042 12.4805 26.3086 12.4805 25.6055H17.5195ZM26.25 23.0859V24.375H3.75V23.0859L6.26953 20.625V13.125C6.26953 11.1718 6.8458 9.42393 7.99805 7.88086C9.15029 6.33779 10.6444 5.29307 12.4805 4.74609V4.33594C12.4805 3.67178 12.7245 3.0958 13.2129 2.60742C13.701 2.11904 14.2969 1.875 15 1.875C15.7031 1.875 16.2987 2.11904 16.7871 2.60742C17.2755 3.0958 17.5195 3.67178 17.5195 4.33594V4.74609C19.3556 5.29307 20.8497 6.33779 22.002 7.88086C23.1542 9.42393 23.7305 11.1718 23.7305 13.125V20.625L26.25 23.0859Z" fill="#BBBAC3"/>
</svg>
