<svg width="1em" height="1em" viewBox="0 0 12 12" fill="#1E1B39" xmlns="http://www.w3.org/2000/svg">
    <g opacity="0.5">
        <path
            d="M7 10.5V8.9625L9.7625 6.2125C9.8375 6.1375 9.92083 6.08333 10.0125 6.05C10.1042 6.01667 10.1958 6 10.2875 6C10.3875 6 10.4833 6.01875 10.575 6.05625C10.6667 6.09375 10.75 6.15 10.825 6.225L11.2875 6.6875C11.3542 6.7625 11.4063 6.84583 11.4438 6.9375C11.4813 7.02917 11.5 7.12083 11.5 7.2125C11.5 7.30417 11.4833 7.39792 11.45 7.49375C11.4167 7.58958 11.3625 7.675 11.2875 7.75L8.5375 10.5H7ZM7.75 9.75H8.225L9.7375 8.225L9.5125 7.9875L9.275 7.7625L7.75 9.275V9.75ZM9.5125 7.9875L9.275 7.7625L9.7375 8.225L9.5125 7.9875Z"
            fill="currentColor" />
        <path
            d="M6 1C6.69167 1 7.34186 1.13105 7.9502 1.39355C8.55849 1.65605 9.08713 2.01291 9.53711 2.46289C9.98709 2.91287 10.3439 3.44151 10.6064 4.0498C10.7668 4.4215 10.8771 4.8091 10.9395 5.21191L9.69629 4.43457C9.50157 3.97308 9.21332 3.55121 8.83105 3.16895C8.05189 2.38978 7.10833 2 6 2C4.89167 2 3.94811 2.38978 3.16895 3.16895C2.38978 3.94811 2 4.89167 2 6C2 7.10833 2.38978 8.05189 3.16895 8.83105C3.94811 9.61022 4.89167 10 6 10V11C5.30833 11 4.65814 10.8689 4.0498 10.6064C3.44151 10.3439 2.91287 9.98709 2.46289 9.53711C2.01291 9.08713 1.65605 8.55849 1.39355 7.9502C1.13105 7.34186 1 6.69167 1 6C1 5.30833 1.13105 4.65814 1.39355 4.0498C1.65605 3.44151 2.01291 2.91287 2.46289 2.46289C2.91287 2.01291 3.44151 1.65605 4.0498 1.39355C4.65814 1.13105 5.30833 1 6 1ZM6.5 3.5V5.7998L7.59961 6.89941L6.89941 7.59961L5.5 6.2002V3.5H6.5Z"
            fill="currentColor" />
    </g>
</svg>