<svg width="14" height="14" viewBox="0 0 14 14" fill="none" xmlns="http://www.w3.org/2000/svg">
<path d="M2.03027 2.0304C2.32315 1.73752 2.79792 1.73756 3.09082 2.0304L3.96777 2.90735C6.14564 1.99393 8.66441 2.19072 10.6934 3.49426L10.9287 3.64563C11.9005 4.27006 12.7193 5.10584 13.3242 6.08997L14 7.1886L13.4893 8.06262C12.9628 8.96351 12.2478 9.73767 11.3965 10.3361L11.9727 10.9122C12.2653 11.2051 12.2654 11.68 11.9727 11.9728C11.6799 12.2655 11.205 12.2654 10.9121 11.9728L2.03027 3.09094C1.73746 2.79806 1.73745 2.32327 2.03027 2.0304ZM4.00098 7.06165C4.03358 8.66941 5.33066 9.9658 6.93848 9.99817L8.48535 11.545C6.72145 11.8552 4.86897 11.5088 3.30664 10.505L3.07129 10.3536C2.09947 9.72917 1.28064 8.89345 0.675781 7.9093L0 6.81067L0.510742 5.93665C0.79674 5.44728 1.13882 4.99515 1.52734 4.58801L4.00098 7.06165ZM7 4.00012C6.44369 4.00012 5.92367 4.15295 5.47754 4.41711L6.67285 5.61243C6.77789 5.58772 6.88743 5.57434 7 5.57434C7.78688 5.57434 8.4246 6.21329 8.4248 7.00012C8.42477 7.11202 8.41018 7.22089 8.38574 7.32532L9.58203 8.52161C9.84651 8.07592 9.99991 7.55636 10 7.00012C9.99979 5.34345 8.65673 4.00012 7 4.00012Z" fill="currentColor"/>
</svg>
