<svg width="14" height="14" viewBox="0 0 14 14" fill="none" xmlns="http://www.w3.org/2000/svg">
<path d="M2.90625 3.45911C5.28842 1.95835 8.32465 1.97235 10.6934 3.49426L10.9287 3.64563C11.9007 4.27011 12.7193 5.10573 13.3242 6.08997L14 7.18958L13.4893 8.06262C12.9013 9.06889 12.0798 9.91889 11.0938 10.5402C8.71157 12.0409 5.67536 12.0279 3.30664 10.506L3.07129 10.3536C2.09953 9.72923 1.28063 8.89433 0.675781 7.91028L0 6.81067L0.510742 5.93762C1.09877 4.9312 1.92003 4.08043 2.90625 3.45911ZM7 4.00012C5.34316 4.00012 4.00002 5.34328 4 7.00012C4.00011 8.65688 5.34321 10.0001 7 10.0001C8.65679 10.0001 9.99989 8.65688 10 7.00012C9.99998 5.34328 8.65684 4.00012 7 4.00012ZM7 5.57532C7.78701 5.57532 8.4248 6.21312 8.4248 7.00012C8.42471 7.78705 7.78695 8.42493 7 8.42493C6.21305 8.42493 5.57529 7.78705 5.5752 7.00012C5.5752 6.21312 6.21299 5.57532 7 5.57532Z" fill="white"/>
</svg>
