<svg width="20" height="20" viewBox="0 0 20 20" fill="none" xmlns="http://www.w3.org/2000/svg">
<path d="M15.3365 4.73669L10.6646 4.20972L4.95296 4.73669L4.43408 9.99943L4.95296 15.2622L10.1447 15.9201L15.3365 15.2622L15.8563 9.86843L15.3365 4.73669Z" fill="white"/>
<path d="M7.51738 12.3218C7.20299 12.109 6.98461 11.7986 6.86621 11.3882L7.59657 11.0874C7.66297 11.3394 7.77897 11.5354 7.94376 11.6746C8.10775 11.8138 8.30774 11.8818 8.54213 11.8818C8.78052 11.8818 8.9861 11.8098 9.1581 11.6642C9.2405 11.5974 9.30655 11.5127 9.35119 11.4165C9.39583 11.3202 9.41789 11.2151 9.41568 11.109C9.41781 11.0006 9.39428 10.8932 9.34702 10.7957C9.29975 10.6981 9.23008 10.613 9.1437 10.5475C8.96291 10.4019 8.73572 10.3291 8.46373 10.3291H8.04215V9.60592H8.42053C8.65412 9.60592 8.85091 9.54272 9.0109 9.41633C9.1709 9.29074 9.25089 9.11794 9.25089 8.89796C9.25089 8.70197 9.1789 8.54597 9.0365 8.42918C8.89331 8.31239 8.71252 8.25319 8.49253 8.25319C8.27734 8.25319 8.10695 8.31079 7.98056 8.42518C7.85416 8.53957 7.76297 8.68117 7.70457 8.84756L6.98141 8.54597C7.0774 8.27399 7.25339 8.034 7.51098 7.82761C7.76937 7.61962 8.09895 7.51562 8.49893 7.51563C8.79491 7.51563 9.0605 7.57242 9.29649 7.68762C9.53248 7.80201 9.71727 7.9612 9.85086 8.16279C9.98445 8.36598 10.0509 8.59397 10.0509 8.84596C10.0509 9.10435 9.98925 9.32193 9.86446 9.50113C9.74748 9.67322 9.59046 9.81432 9.40688 9.91231V9.9555C9.64047 10.0515 9.84366 10.2107 9.99405 10.4131C10.1498 10.6269 10.2305 10.8862 10.2236 11.1506C10.2236 11.4362 10.1516 11.6922 10.0061 11.9162C9.86046 12.1402 9.65967 12.3178 9.40448 12.4458C9.1485 12.5738 8.86131 12.6394 8.54293 12.6394C8.17658 12.6413 7.81851 12.5304 7.51738 12.3218ZM12.0004 8.69637L11.2028 9.27634L10.8012 8.66837L12.2411 7.63082H12.7923V12.5266H12.0004V8.69557V8.69637Z" fill="#1A73E8"/>
<path d="M14.2107 17.9991L18.0001 14.2097L16.1058 13.3682L14.2107 14.2097L13.3691 16.1048L14.2107 17.9991Z" fill="#EA4335"/>
<path d="M4.94775 16.1048L5.79011 17.9991H14.2105V14.2097H5.79011L4.94775 16.1048Z" fill="#34A853"/>
<path d="M3.26394 2C2.56557 2 2 2.56557 2 3.26314V14.2098L3.89591 15.0521L5.79021 14.2098V5.78941H14.2106L15.0529 3.89431L14.2106 2H3.26394Z" fill="#4285F4"/>
<path d="M2.00073 14.2097V16.736C2.00073 17.4344 2.5655 17.9999 3.26387 17.9999H5.78934V14.2097H2.00073Z" fill="#188038"/>
<path d="M14.2104 5.78938V14.2098H17.9999V5.78938L16.1056 4.94702L14.2104 5.78938Z" fill="#FBBC04"/>
<path d="M17.9999 5.78941V3.26314C17.9999 2.56557 17.4351 2 16.7367 2H14.2104V5.78941H17.9999Z" fill="#1967D2"/>
</svg>
