<svg width="1em" height="1em" viewBox="0 0 24 24" fill="#BBBAC3" xmlns="http://www.w3.org/2000/svg">
    <path
        d="M12.9668 3.31005L19.9138 8.27984C20.2499 8.52023 20.5237 8.83691 20.7125 9.20368C20.9014 9.57046 20.9999 9.97678 21 10.389V18.4033C21 19.8374 19.8336 21 18.3947 21H14.8421V17.223C14.8421 15.6586 13.5696 14.3903 12 14.3903C10.4304 14.3903 9.1579 15.6586 9.1579 17.223V21H5.60526C4.16645 21 3 19.8374 3 18.4033V10.3893C3.00002 9.97698 3.09854 9.57061 3.28742 9.20379C3.47629 8.83697 3.75009 8.52025 4.08616 8.27984L11.0332 3.31005C11.315 3.10844 11.6531 3 12 3C12.3469 3 12.685 3.10844 12.9668 3.31005Z"
        fill="currentColor" />
    <path
        d="M12.9668 3.31005L19.9138 8.27984C20.2499 8.52023 20.5237 8.83691 20.7125 9.20368C20.9014 9.57046 20.9999 9.97678 21 10.389V18.4033C21 19.8374 19.8336 21 18.3947 21H14.8421V17.223C14.8421 15.6586 13.5696 14.3903 12 14.3903C10.4304 14.3903 9.1579 15.6586 9.1579 17.223V21H5.60526C4.16645 21 3 19.8374 3 18.4033V10.3893C3.00002 9.97698 3.09854 9.57061 3.28742 9.20379C3.47629 8.83697 3.75009 8.52025 4.08616 8.27984L11.0332 3.31005C11.315 3.10844 11.6531 3 12 3C12.3469 3 12.685 3.10844 12.9668 3.31005Z"
        fill="currentColor" />
</svg>