<svg width="30" height="30" viewBox="0 0 30 30" fill="none" xmlns="http://www.w3.org/2000/svg">
<path d="M20.4736 4.25C20.9706 4.25007 21.4473 4.44748 21.7988 4.79883L25.7012 8.70117C26.0525 9.0527 26.2499 9.52935 26.25 10.0264V23.875C26.25 24.9105 25.4105 25.75 24.375 25.75H6.875C5.83947 25.75 5 24.9105 5 23.875V6.125C5 5.08947 5.83947 4.25 6.875 4.25H20.4736ZM15.625 16.625C13.8991 16.625 12.5 18.0241 12.5 19.75C12.5 21.4759 13.8991 22.875 15.625 22.875C17.3509 22.875 18.75 21.4759 18.75 19.75C18.75 18.0241 17.3509 16.625 15.625 16.625ZM8 13.75H19.75V7.25H8V13.75Z" fill="#BBBAC3"/>
</svg>
