<svg width="24" height="24" viewBox="0 0 24 24" fill="none" xmlns="http://www.w3.org/2000/svg">
    <path fill-rule="evenodd" clip-rule="evenodd"
        d="M20.8574 14.7139C21.2143 14.7139 21.5177 14.8392 21.7676 15.0889C22.0176 15.3389 22.1426 15.6429 22.1426 16V20.2861C22.1425 20.6431 22.0175 20.9464 21.7676 21.1963C21.5177 21.4462 21.2144 21.5712 20.8574 21.5713H3.14258C2.78561 21.5712 2.48233 21.4462 2.23242 21.1963C1.98253 20.9464 1.85753 20.6431 1.85742 20.2861V16C1.85742 15.6429 1.98242 15.3389 2.23242 15.0889C2.48229 14.8391 2.78572 14.7139 3.14258 14.7139H7.72852C7.72852 15.4132 8.00421 16.0421 8.48047 16.5186C8.95689 16.995 9.58576 17.2714 10.2852 17.2715H13.7139C14.4134 17.2715 15.042 16.9951 15.5186 16.5186C15.995 16.042 16.2715 15.4134 16.2715 14.7139H20.8574ZM16.1426 18.1426C15.9106 18.1427 15.7096 18.2279 15.54 18.3975C15.3705 18.5671 15.2861 18.7679 15.2861 19C15.2861 19.2321 15.3705 19.4329 15.54 19.6025C15.7096 19.7721 15.9106 19.8573 16.1426 19.8574C16.3746 19.8574 16.5755 19.7721 16.7451 19.6025C16.9147 19.4329 17 19.2321 17 19C17 18.7679 16.9148 18.5671 16.7451 18.3975C16.5755 18.2279 16.3747 18.1426 16.1426 18.1426ZM19.5713 18.1426C19.3392 18.1426 19.1383 18.2279 18.9688 18.3975C18.7992 18.5671 18.7139 18.7679 18.7139 19C18.7139 19.2321 18.7992 19.4329 18.9688 19.6025C19.1383 19.7721 19.3392 19.8574 19.5713 19.8574C19.8034 19.8574 20.0042 19.7721 20.1738 19.6025C20.3435 19.4329 20.4287 19.2321 20.4287 19C20.4287 18.7679 20.3435 18.5671 20.1738 18.3975C20.0042 18.2279 19.8034 18.1426 19.5713 18.1426Z"
        fill="#BBBAC3" />
    <path
        d="M18.7899 9.19195C18.9417 8.82588 18.8792 8.51338 18.6024 8.25445L12.6024 2.25445C12.4417 2.08481 12.2408 1.99998 11.9997 1.99998C11.7587 1.99998 11.5578 2.08481 11.397 2.25445L5.39704 8.25445C5.12026 8.51338 5.05776 8.82588 5.20954 9.19195C5.36133 9.54016 5.62472 9.71427 5.99972 9.71427H9.42829V14.7143C9.42829 14.9464 9.51311 15.1473 9.68276 15.3169C9.8524 15.4866 10.0533 15.5714 10.2854 15.5714H13.714C13.9461 15.5714 14.147 15.4866 14.3167 15.3169C14.4863 15.1473 14.5712 14.9464 14.5712 14.7143V9.71427H17.9997C18.3747 9.71427 18.6381 9.54016 18.7899 9.19195Z"
        fill="#BBBAC3" />
</svg>