<svg width="1em" height="1em" viewBox="0 0 9 8" fill="currentColor"
    xmlns="http://www.w3.org/2000/svg">
    <path d="M2 5C1.72386 5 1.5 5.22386 1.5 5.5L1.5 6.5C1.5 6.77614 1.72386 7 2 7L3.5 7L3.5 5L2 5Z"
        fill="currentColor" />
    <path d="M4 3C3.72386 3 3.5 3.22386 3.5 3.5L3.5 7L5.5 7L5.5 3L4 3Z" fill="currentColor" />
    <path
        d="M6 1C5.72386 1 5.5 1.22386 5.5 1.5L5.5 7L7 7C7.27614 7 7.5 6.77614 7.5 6.5L7.5 1.5C7.5 1.22386 7.27614 1 7 1L6 1Z"
        fill="currentColor" />
</svg>