<svg width="1em" height="1em" viewBox="0 0 24 24" fill="#BBBAC3" xmlns="http://www.w3.org/2000/svg">
    <path fill-rule="evenodd" clip-rule="evenodd"
        d="M16.5 3V3.9H19.6154C20.3801 3.9 21 4.51991 21 5.28461V19.6154C21 20.3801 20.3801 21 19.6154 21H4.38462C3.61991 21 3 20.3801 3 19.6154V5.28462C3 4.51991 3.61991 3.9 4.38462 3.9H7.5V3H9.3V3.9H14.7V3H16.5ZM4.8 5.7V8.19231H19.2V5.7H16.5V6.6H14.7V5.7H9.3V6.6H7.5V5.7H4.8ZM16.1538 11.3077H5.76923V13.1538H16.1538V11.3077ZM9.92313 15H5.76923V16.8462H9.92313V15Z"
        fill="currentColor" />
</svg>