<svg width="24" height="24" viewBox="0 0 24 24" fill="none" xmlns="http://www.w3.org/2000/svg">
    <path
        d="M17.0003 19C17.0003 18.7679 16.9155 18.567 16.7458 18.3973C16.5762 18.2277 16.3753 18.1429 16.1431 18.1429C15.911 18.1429 15.7101 18.2277 15.5405 18.3973C15.3708 18.567 15.286 18.7679 15.286 19C15.286 19.2321 15.3708 19.433 15.5405 19.6027C15.7101 19.7723 15.911 19.8571 16.1431 19.8571C16.3753 19.8571 16.5762 19.7723 16.7458 19.6027C16.9155 19.433 17.0003 19.2321 17.0003 19ZM20.4289 19C20.4289 18.7679 20.344 18.567 20.1744 18.3973C20.0047 18.2277 19.8039 18.1429 19.5717 18.1429C19.3396 18.1429 19.1387 18.2277 18.969 18.3973C18.7994 18.567 18.7146 18.7679 18.7146 19C18.7146 19.2321 18.7994 19.433 18.969 19.6027C19.1387 19.7723 19.3396 19.8571 19.5717 19.8571C19.8039 19.8571 20.0047 19.7723 20.1744 19.6027C20.344 19.433 20.4289 19.2321 20.4289 19ZM22.1431 16V20.2857C22.1431 20.6429 22.0181 20.9464 21.7681 21.1964C21.5181 21.4464 21.2146 21.5714 20.8574 21.5714H3.14314C2.78599 21.5714 2.48242 21.4464 2.23242 21.1964C1.98242 20.9464 1.85742 20.6429 1.85742 20.2857V16C1.85742 15.6429 1.98242 15.3393 2.23242 15.0893C2.48242 14.8393 2.78599 14.7143 3.14314 14.7143H8.37081L10.1789 16.5357C10.6967 17.0357 11.3039 17.2857 12.0003 17.2857C12.6967 17.2857 13.3039 17.0357 13.8217 16.5357L15.6431 14.7143H20.8574C21.2146 14.7143 21.5181 14.8393 21.7681 15.0893C22.0181 15.3393 22.1431 15.6429 22.1431 16ZM18.7905 8.37946C18.9422 8.74554 18.8797 9.05804 18.603 9.31696L12.603 15.317C12.4422 15.4866 12.2414 15.5714 12.0003 15.5714C11.7592 15.5714 11.5583 15.4866 11.3976 15.317L5.3976 9.31696C5.12081 9.05804 5.05831 8.74554 5.2101 8.37946C5.36189 8.03125 5.62528 7.85714 6.00028 7.85714H9.42885V2.85714C9.42885 2.625 9.51367 2.42411 9.68331 2.25446C9.85296 2.08482 10.0539 2 10.286 2H13.7146C13.9467 2 14.1476 2.08482 14.3172 2.25446C14.4869 2.42411 14.5717 2.625 14.5717 2.85714V7.85714H18.0003C18.3753 7.85714 18.6387 8.03125 18.7905 8.37946Z"
        fill="#BBBAC3" />
</svg>