<svg width="1em" height="1em" viewBox="0 0 24 24" fill="#BBBAC3" xmlns="http://www.w3.org/2000/svg">
    <path fill-rule="evenodd" clip-rule="evenodd"
        d="M4.44 3C3.64471 3 3 3.64471 3 4.44V19.56C3 20.3553 3.64471 21 4.44 21H19.56C20.3553 21 21 20.3553 21 19.56V4.44C21 3.64471 20.3553 3 19.56 3H4.44ZM15.1935 9.09677C15.1935 10.8605 13.7637 12.2903 12 12.2903C10.2363 12.2903 8.80645 10.8605 8.80645 9.09677C8.80645 7.33303 10.2363 5.90323 12 5.90323C13.7637 5.90323 15.1935 7.33303 15.1935 9.09677ZM5.90323 16.9355C5.90323 15.3321 7.20304 14.0323 8.80645 14.0323H15.1935C16.797 14.0323 18.0968 15.3321 18.0968 16.9355V18.0968H5.90323V16.9355Z"
        fill="currentColor" />
</svg>